<?xml version="1.0" encoding="UTF-8"?><svg id="_レイヤー_2" xmlns="http://www.w3.org/2000/svg" xmlns:xlink="http://www.w3.org/1999/xlink" viewBox="0 0 699.6 293.97"><defs><style>.cls-1{clip-path:url(#clippath-4);}.cls-1,.cls-2,.cls-3,.cls-4,.cls-5,.cls-6,.cls-7,.cls-8,.cls-9{fill:none;}.cls-2{clip-path:url(#clippath-2);}.cls-10{fill:#fff;}.cls-11{fill:url(#_名称未設定グラデーション_13);}.cls-12{fill:url(#_名称未設定グラデーション_13-3);}.cls-3{clip-path:url(#clippath-7);}.cls-13{fill:#d2d0d0;}.cls-4{stroke:#fff;stroke-miterlimit:10;stroke-width:3px;}.cls-14{fill:#614e51;}.cls-5{clip-path:url(#clippath-5);}.cls-15{fill:#3b3e43;}.cls-16{fill:#70bdb3;}.cls-17{fill:url(#_名称未設定グラデーション_13-2);}.cls-18{fill:#f4d1cc;}.cls-19{fill:#fcede7;}.cls-6{clip-path:url(#clippath-3);}.cls-20{fill:#920000;}.cls-8{clip-path:url(#clippath);}.cls-21{fill:#f7f7f7;}.cls-22{fill:#c90005;}.cls-23{fill:#92787d;}.cls-9{clip-path:url(#clippath-1);}.cls-24{fill:#c30d23;}.cls-25{fill:#705b5f;}</style><clipPath id="clippath"><path class="cls-7" d="m216.81,7.61s14.58,15.21,18.37,22.18l3.8,6.97,5.07,17.11,12.29-5.34s1.66-11.77,5.45-30.15q3.8-18.37,3.8-18.37l-17.8,14.58-31-6.97Z"/></clipPath><clipPath id="clippath-1"><path class="cls-7" d="m216.81,7.61s14.58,15.21,18.37,22.18l3.8,6.97,5.07,17.11,12.29-5.34s1.66-11.77,5.45-30.15q3.8-18.37,3.8-18.37l-17.8,14.58-31-6.97Z"/></clipPath><linearGradient id="_名称未設定グラデーション_13" x1="249.33" y1="96.05" x2="442.26" y2="96.05" gradientUnits="userSpaceOnUse"><stop offset="0" stop-color="#4a383d"/><stop offset=".37" stop-color="#4d3b3f"/><stop offset=".67" stop-color="#574448"/><stop offset=".84" stop-color="#614e51"/></linearGradient><linearGradient id="_名称未設定グラデーション_13-2" x1="254.36" y1="74.91" x2="445.08" y2="74.91" xlink:href="#_名称未設定グラデーション_13"/><clipPath id="clippath-2"><path class="cls-7" d="m323.48,6.91s-26.61,11.94-44.36,20.07c-17.74,8.13-17.74,13.86-17.74,13.86l15.84,13.27s40.55-13.94,49.42-10.77-5.07-16.37-5.07-16.37l1.91-20.07Z"/></clipPath><clipPath id="clippath-3"><path class="cls-7" d="m323.48,6.91s-26.61,11.94-44.36,20.07c-17.74,8.13-17.74,13.86-17.74,13.86l15.84,13.27s40.55-13.94,49.42-10.77-5.07-16.37-5.07-16.37l1.91-20.07Z"/></clipPath><clipPath id="clippath-4"><path class="cls-7" d="m323.48,6.91s-26.61,11.94-44.36,20.07c-17.74,8.13-17.74,13.86-17.74,13.86l15.84,13.27s40.55-13.94,49.42-10.77-5.07-16.37-5.07-16.37l1.91-20.07Z"/></clipPath><clipPath id="clippath-5"><path class="cls-7" d="m323.48,6.91s-26.61,11.94-44.36,20.07c-17.74,8.13-17.74,13.86-17.74,13.86l15.84,13.27s40.55-13.94,49.42-10.77-5.07-16.37-5.07-16.37l1.91-20.07Z"/></clipPath><linearGradient id="_名称未設定グラデーション_13-3" x1="175.68" y1="159.98" x2="395.37" y2="159.98" xlink:href="#_名称未設定グラデーション_13"/><clipPath id="clippath-7"><path class="cls-7" d="m498.72,130.38c-25.86,0-46.82,20.96-46.82,46.82s20.96,46.82,46.82,46.82,46.82-20.96,46.82-46.82-20.96-46.82-46.82-46.82Zm.13,73.59c-14.78,0-26.77-11.99-26.77-26.77s11.99-26.77,26.77-26.77,26.77,11.99,26.77,26.77-11.99,26.77-26.77,26.77Z"/></clipPath></defs><g id="_レイヤー_1-2"><rect class="cls-10" x="18.8" y="152.45" width="78" height="63"/><path class="cls-10" d="m216.81,7.61s14.58,15.21,18.37,22.18l3.8,6.97,5.07,17.11,12.29-5.34s1.66-11.77,5.45-30.15q3.8-18.37,3.8-18.37l-17.8,14.58-31-6.97Z"/><g class="cls-8"><polygon class="cls-24" points="213.75 13.95 247.8 26.94 276.65 6.34 247.8 21.55 213.75 13.95"/></g><g class="cls-9"><polygon class="cls-24" points="226.95 26.94 247.8 36.66 273.83 20.92 247.8 41.83 226.95 26.94"/></g><path class="cls-11" d="m249.91,34.72c2.7-3.04,5.39-6.08,8.09-9.12.67-.75,1.79-.89,2.62-.32,25.99,17.64,48.09,29.91,63,37.66,57.21,29.75,96.9,39.01,113.38,76,3.1,6.97,4.55,13.1,5.27,16.86-2.09-6.11-6.13-15.41-14.05-24.68-10.52-12.32-22.5-18.26-29.03-20.93-.01,0-.02.01-.03.02-.56.71,18.82,12.56,28.25,30.97,2.98,5.82,4.4,11.18,5.14,15.01-3.45.84-6.9,1.67-10.35,2.51-2.25-4.13-5.2-8.82-9.03-13.68-4.98-6.31-10.08-11.17-14.46-14.79,4.7,5.04,10.02,11.98,14.29,21.03,1.4,2.97,2.53,5.83,3.45,8.54-3.61.44-7.23.88-10.84,1.31-1.47-2.07-3.21-4.3-5.26-6.57-2.72-3.02-5.42-5.52-7.89-7.56,1.93,2.38,4,5.33,5.91,8.87,1.05,1.95,1.92,3.83,2.63,5.59-3.7.71-7.4,1.42-11.11,2.12-2.31-2.02-4.73-4.35-7.13-7.05-6.12-6.87-10.14-13.79-12.81-19.5,2.33,6.83,5.63,14.32,10.35,21.96,1.03,1.66,2.07,3.25,3.12,4.76-3.31.66-6.61,1.32-9.92,1.98-.62-2.05-1.45-4.33-2.57-6.75-1.86-3.99-3.99-7.22-5.91-9.69.5,2.34.94,5.77.49,9.86-.37,3.32-1.21,6.04-1.99,8.02-.28-4.07-.78-8.01-1.48-11.83-11.48-63.08-77.1-100.7-111.4-116.96-1.4-.67-1.77-2.49-.74-3.65Z"/><path class="cls-17" d="m262.39,26.47c27.27,9.98,48.91,18.54,62.94,24.21,55.49,22.44,84,31.75,94.62,20.34,1.83-1.96,2.72-4.12,3.19-5.6-.24,1.71-1.36,8.04-6.88,12.46-5.79,4.63-14.14,5.33-21.44,1.85,8.92,3.71,22.26,10.64,34.81,23.43,6.96,7.09,11.94,14.21,15.45,20.18-5.64-6.21-14.35-14.82-26.38-23.18-11.7-8.13-22.32-13.09-46.57-22.42-26.73-10.28-40.6-14.56-61.25-21.94-13.49-4.82-32.99-12.07-56.52-21.9,2.68-2.47,5.35-4.95,8.03-7.42Z"/><path class="cls-10" d="m323.48,6.91s-26.61,11.94-44.36,20.07c-17.74,8.13-17.74,13.86-17.74,13.86l15.84,13.27s40.55-13.94,49.42-10.77-5.07-16.37-5.07-16.37l1.91-20.07Z"/><g class="cls-2"><polygon class="cls-24" points="305.26 2.76 305.26 26.21 327.2 58.26 312.71 28.85 305.26 2.76"/></g><g class="cls-6"><polygon class="cls-24" points="296.54 1.61 297.24 29.59 321.2 52.35 292.92 35.08 296.54 1.61"/></g><g class="cls-1"><polygon class="cls-24" points="284.97 8.47 285.66 36.46 309.63 59.21 281.35 41.94 284.97 8.47"/></g><g class="cls-5"><polygon class="cls-24" points="273.37 18.52 274.45 41.52 297.81 60.58 270.4 45.96 273.37 18.52"/></g><path class="cls-12" d="m351.79,158.25c-4.64-16.15-8.11-33.63-8.11-33.63-.6-4.02-1.55-9.8-2.97-16.69-1.76-8.53-4.12-19.98-7.1-27.46-7.08-17.75-23.32-27.41-29.54-31.11-2.13-1.26-46.31-26.54-84.64-.74-26.94,18.14-39.2,53.56-29.35,87.08-6.04,32.71-10.06,60.63-12.8,82.93-2.08,16.94-4.27,37.47,8.52,52.13,7.52,8.62,17.03,9.35,24.04,10.96-.54-2.16-1.15-5.13,1.29-11.85,2.3-6.33,6.52-9.94,8.3-11.32-.57,2.26-1.28,6.49,0,11.46,2.25,8.69,6.44,9.88,8.14,10.94,5.38-.09,13.17.85,18.56.76-.17-1.65-.13-2.01.65-5.05.78-3.04,2.09-5.29,3.03-6.65-.24.39-3.35,5.58-.85,10.56,1.09,2.16,1.11.82,2.09,1.41,17.03-.59,35.63.59,52.66,0-.09-.79-.22-2.67,1.48-5.31,1.28-2,3.01-2.95,3.79-3.33-.2.25-1.91,2.44-1.21,5.17.59,2.31,2.66,4.06,5.2,4.38,5.67-.09,11.33-.18,17-.27-1.25-2.36-3.26-6.93-3.35-12.97-.12-8.15,3.32-14.03,4.81-16.27-.57,3.93-.97,10.37,1.15,17.8,1.22,4.29,2.94,7.75,4.49,10.3,3.54-.12,7.08-.25,10.63-.37-.51-.69-1.87-2.7-1.85-5.54.03-4.11,2.93-6.64,3.38-7.02-.31.68-1.44,3.4-.42,6.65.87,2.79,2.79,6.17,3.46,6.65,6,.07,11.99.13,17.99.2,1.42-5.04,2.58-10.94,2.95-17.57,1.26-22.57-7.31-40.25-12.57-49.16,4.43,4.33,27.21,27.39,22.55,55.07-.6,3.55-1.71,7.55-3.7,11.83,8.39-4.66,11.95-9.95,13.68-13.68,11.74-25.42-26.01-56.9-41.35-110.29Z"/><rect class="cls-18" x="248.2" y="205.36" width="28.47" height="56.66"/><polygon class="cls-22" points="247.1 225.8 275.74 275.22 185.23 275.31 195.7 236.9 247.1 225.8"/><polygon class="cls-22" points="277.88 225.75 249.25 275.17 339.76 274.7 329.29 236.29 277.88 225.75"/><path class="cls-13" d="m185.41,249.73c1.67-6.12,6.03-10.65,11.39-11.81l48.28-10.43,31.21,53.88-99.43.13,8.54-31.77Z"/><path class="cls-10" d="m244.33,229.19l29.36,50.68-94.87.13,8.03-29.87c1.52-5.59,5.45-9.7,10.26-10.74l47.22-10.2m1.5-3.39l-49.35,10.66c-5.89,1.27-10.7,6.22-12.52,12.88l-9.05,33.67,103.98-.14-33.06-57.07h0Z"/><path class="cls-13" d="m248.78,281.4l31.52-53.91,49.35,10.66c4.7,1.02,8.53,4.99,10,10.38l8.87,32.87h-99.73Z"/><path class="cls-10" d="m281.05,229.19l48.29,10.43c4.15.9,7.55,4.46,8.87,9.3l8.36,30.98h-95.16l29.65-50.71m-1.49-3.39l-33.39,57.1h104.31l-9.38-34.76c-1.61-5.92-5.89-10.32-11.13-11.45l-50.41-10.89h0Z"/><line class="cls-4" x1="223.62" y1="232.15" x2="246.17" y2="281.79"/><line class="cls-4" x1="300.86" y1="230.4" x2="274.98" y2="282.25"/><polygon class="cls-20" points="225.31 260.85 214.68 260.85 214.68 230.5 225.31 229.03 225.31 260.85"/><path class="cls-16" d="m223.57,259.27h-1.55v-30.35c.52-.18,1.03-.16,1.55-.34v30.69Z"/><path class="cls-15" d="m290.33,278.77c-33.69-2.44-54.86,2.43-61.17-8.24-.82-1.39-1.71-3.59-1.66-6.95.07-.43.12-.86.12-1.31,0-.12-.01-.24-.02-.36,0-.07.01-.13.02-.2h-.03c-.29-4.1-3.7-7.34-7.87-7.34s-7.58,3.24-7.87,7.34h-.03c-.4,1.38-.93,2.82-1.63,4.28-4.2,8.8-12,14.91-16.27,16.91,41.48.34,84.95-.28,126.44.06-6.25-1.12-17.99-3.31-30.02-4.18Z"/><polygon class="cls-16" points="224.72 269.78 219.73 261.97 219.77 260.76 218.66 259.93 214.68 276.91 219.29 275.02 219.61 265.45 222.16 273.31 224.72 269.78"/><path class="cls-14" d="m192.43,251.12c-.75,3.24-2.02,10.71.82,19.47,3.18,9.81,9.62,15.43,12.21,17.46-6.21-4.09-13.73-9.43-19.91-15.04-.69-.63-1.65-1.52-2.25-3.01-2.74-6.87,6.37-16.19,9.13-18.87Z"/><line class="cls-7" x1="325.09" y1="112.54" x2="349.41" y2="129.36"/><path class="cls-14" d="m322.84,165.53c5.23-10.4,8.84-19.7,11.34-27.11,4.51-13.38,6.92-20.51,6.73-30.49-.26-13.34-5.34-23.05-7.1-27.46-7.08-17.75-23.32-27.41-29.54-31.11-2.13-1.26-46.31-26.54-84.64-.74-26.94,18.14-39.2,53.56-29.35,87.08l132.58,29.83Z"/><path class="cls-25" d="m205.73,120.24c18.69,41.72,15.99,69.31,8.87,87.48-11.84,30.2-40.54,46.17-35.02,65.8,2.99,10.63,14.46,16.84,23.93,20.45-3.59-2.94-8.84-8.08-11.58-15.77-11.64-32.58,38.94-62.23,41.89-112.37.75-12.81-1.33-31.51-15.52-54.93-4.19,3.11-8.38,6.23-12.57,9.34Z"/><path class="cls-19" d="m325.33,109.81l-44.74,1.69h-84.01l4.53,35.06,5.6,18.42c3.04,10.72,6.17,19.2,7.01,21.27,7.71,19.04,39.2,33.06,48.4,36.93,12.16-2.54,21.16-6.97,26.78-10.27,8.9-5.23,17.76-10.43,22.9-20.66,1.27-2.53,1.36-3.47,5.94-20.7,1.94-7.32,3.55-13.28,4.59-17.11l3.01-44.63Z"/><rect class="cls-21" x="200.76" y="106.62" width="124.56" height="29.58"/><rect class="cls-24" x="205.38" y="106.62" width="10.35" height="29.58"/><rect class="cls-24" x="284.27" y="106.62" width="10.35" height="29.58"/><rect class="cls-24" x="264.54" y="106.62" width="10.35" height="29.58"/><rect class="cls-24" x="244.82" y="106.62" width="10.35" height="29.58"/><rect class="cls-24" x="225.1" y="106.62" width="10.35" height="29.58"/><rect class="cls-24" x="303.99" y="106.62" width="10.35" height="29.58"/><path class="cls-25" d="m258.53,40.1c1.14,10.47,1.86,22.09,1.8,34.67-1.94-13.28-4.92-24.89-8.05-34.57l-46.9,66.42h62.04c1.79-5.58,3.39-12.67,3.68-20.93.76-21.57-7.85-37.99-12.57-45.59Z"/><rect class="cls-14" x="273.56" y="86.67" width="28.83" height="19.95"/><path class="cls-23" d="m258.53,40.1c5.84,21.59,12.42,58.38,2.96,101.53-3.8,17.32-9.39,32.08-15.06,44.07,3.37-2.87,7.01-6.35,10.62-10.56,6.83-7.94,11.33-15.82,14.29-22.18-2.26,6.41-4.53,12.81-6.79,19.22,6.15-8.93,13.29-22,16.79-38.89,10.18-49.18-17.81-86.38-22.81-93.19Z"/><path class="cls-25" d="m325.09,73.36c5.8,19.79,7.03,36.32,6.92,48.4-.31,35.06-12.01,48.42-17.55,101.43-1.44,13.76-2.44,30.02,5.35,47.53,4.33,9.73,9.99,16.73,14.05,21.07-5.36-1.54-12.73-4.63-18.11-11.33-10.22-12.73-6.86-30.55-5.14-40.73h0c0-44.4,9.67-74.51,12.48-88.74,3.79-19.18,2.81-48.31-20.7-90.11,7.16,2.86,15.54,9.63,22.7,12.48Z"/><polygon class="cls-25" points="275.07 49.95 277.46 48.17 319.07 67.74 314.6 96.82 275.07 49.95"/><path class="cls-23" d="m327.28,123.39c-10.98-32.54-25.8-51.68-29.82-56.92-1.96-2.56-3.64-4.55-5.67-6.65-11.35-11.73-24.43-17.09-33.27-19.71.53.73,1.31,1.84,2.22,3.2,11.43,17.09,15.32,32.43,17,37.95,6.05,19.86,16.2,19.88,36.72,50.76,1.98,2.98,4.09,6.36,4.09,6.36,3.31,5.33,5.93,10.01,7.87,13.66.76-3.53,1.79-25.88.85-28.65Z"/><path class="cls-23" d="m258.54,40.25c.37-.46,9.97,2.33,27.39,10.52,21.68,10.19,88.79,41.74,93.42,80.84.33,2.81.27,5.03.23,5.85-1.19-3.83-3.2-9.23-6.69-15.48-29.32-52.61-115.48-80.34-114.35-81.73Z"/><path class="cls-23" d="m302.39,60.88c18.74,51.14,18.94,94.36,14.07,120.07-3.93,20.75-14.53,55.47,3.33,83.9,3.4,5.42,7.04,9.34,9.61,11.83-2.46-4.76-5.84-12.1-8.5-21.44-10.56-37.13,2.13-64.63,7.02-100.91,2.53-18.75,3.8-47.17-2.83-80.97-7.16-2.86-15.54-9.63-22.7-12.48Z"/><path class="cls-23" d="m252.28,40.2c-3.93,3.43-8.01,6.89-12.27,10.34-10.59,8.58-21.03,16.19-31.1,22.93-8.59,12.77-17.49,31.34-23.66,54.46-19.25,72.14,26.48,144.05,26.86,143.91.16-.06-6.34-13.05-11.83-38.03-5.54-25.18-11.71-53.26-4.68-85.68,4.44-20.47,14.13-37.3,33.51-70.97,9.04-15.71,17.28-28.32,23.16-36.96Z"/><path class="cls-23" d="m252.28,40.2c-4.23,3.38-10.99,8.45-19.88,13.7-19.97,11.8-29.7,12.1-38.36,22.18-4.49,5.23-6.39,12.52-10.19,27.11-3.77,14.48-8.43,33.03-6.9,57.66.61,9.81,2.38,23.34,7.4,38.94-4.57-20.1,34.88-127.24,46.82-139.72,8.23-8.6,15.67-15.25,21.11-19.86Z"/><path class="cls-23" d="m252.28,40.2c-.18,8.14-1.31,20.58-6.41,34.5-8.53,23.26-19.36,28.2-29.57,48.05-11.68,22.71-11.63,44.13-11.58,66.54.07,27.91,6.08,50.86,11.83,66.78-7.65-13.84-17.93-36.43-22.18-66.04-4.78-33.32.23-60.62,4.44-76.61,17.82-24.41,35.65-48.81,53.47-73.22Z"/><path class="cls-23" d="m188.54,106.63c-18.71,14.11-27.19,36.13-21.58,54.85,4.03,13.44,14.13,21.19,18.62,24.21-7.94-1.37-12.51-4.5-15.28-7.35-13.99-14.4-8.27-48.93,16.16-84.98l2.07,13.27Z"/><path class="cls-23" d="m248.98,78.88c-3.19,8.4-6.15,18.95-7.24,31.22-.78,8.77-.45,16.68.36,23.49,1.4-8.81.3-13.15,2.59-21.71l6.51,21.71c-1.49-8.87-2.58-18.68-2.91-29.29-.29-9.09.02-17.59.69-25.42Z"/><circle class="cls-23" cx="424.7" cy="206.32" r="17.88"/><path class="cls-23" d="m498.72,130.38c-25.86,0-46.82,20.96-46.82,46.82s20.96,46.82,46.82,46.82,46.82-20.96,46.82-46.82-20.96-46.82-46.82-46.82Zm.13,73.59c-14.78,0-26.77-11.99-26.77-26.77s11.99-26.77,26.77-26.77,26.77,11.99,26.77,26.77-11.99,26.77-26.77,26.77Z"/><g class="cls-3"><polygon class="cls-10" points="479.26 236.67 473.48 237.05 462.55 99.07 468.33 98.69 479.26 236.67"/><polygon class="cls-10" points="518.5 238.66 524.27 239.04 535.21 101.06 529.44 100.68 518.5 238.66"/><polygon class="cls-10" points="488.92 240.38 486.02 240.47 480.72 102.22 483.61 102.13 488.92 240.38"/><polygon class="cls-10" points="517.31 102.22 514.42 102.13 509.11 240.38 512.01 240.47 517.31 102.22"/><rect class="cls-10" x="495.74" y="99.75" width="6.12" height="152.71"/></g><path class="cls-23" d="m601.58,130.34v19.29h-11.53c-11.46,0-12.54,9.27-12.54,21.94l.17,52.49h-20.37v-93.72h20.18v8.14c2.2-4.21,1.39-2.85,3.6-4.97,2.64-2.11,5.95-3.17,9.91-3.17h10.57Z"/><path class="cls-23" d="m699.54,223.4v-45.48c.04-.74.05-1.48.05-2.23,0-26.35-20.96-47.71-46.82-47.71s-46.82,21.36-46.82,47.71,20.96,47.71,46.82,47.71c9.42,0,18.18-2.84,25.53-7.72,4.08,12.81-1.68,27.03-13.92,32.99-13.34,6.5-29.32.74-35.69-12.85l-18.21,8.87c11.15,23.77,39.1,33.84,62.44,22.47,17.03-8.29,26.88-25.72,26.63-43.77h0Zm-46.63-20.44c-14.78,0-26.77-12.21-26.77-27.28s11.99-27.28,26.77-27.28,26.77,12.21,26.77,27.28c0,15.06-11.99,27.28-26.77,27.28Z"/><path class="cls-23" d="m105.82,175.26c0-24.61-16.13-31.82-16.13-31.82-15.83-7.27-57.87-7.19-73.54,0,0,0-16.13,7.22-16.13,31.82,0,29.29-1.67,65.67,26.74,73.19,10.26,2.71,19.07,3.29,26.16,2.89,12.87-.71,20.08-4.58,20.08-4.58l-.43-9.34s-9.19,2.89-19.52,2.56c-10.23-.35-21.01-1.11-22.69-13.67-.15-1.17-.23-2.34-.23-3.52,21.68,5.29,40.17,2.3,45.25,1.7,14.21-1.7,26.58-10.46,28.16-18.45,2.47-12.61,2.27-30.76,2.27-30.76h0Zm-19.02,31.7h-11.81v-28.91c0-12.58-16.2-13.06-16.2,1.75v15.82h-11.73v-15.83c0-14.81-16.2-14.33-16.2-1.75v28.91h-11.83c0-30.91-1.32-37.44,4.66-44.3,6.56-7.32,20.21-7.8,26.29,1.54l2.93,4.94,2.93-4.94c6.1-9.39,19.78-8.81,26.29-1.54,6,6.91,4.66,13.42,4.66,44.3h0Z"/><circle class="cls-23" cx="138.6" cy="206.32" r="17.88"/></g></svg>